<svg xmlns="http://www.w3.org/2000/svg" xmlns:xlink="http://www.w3.org/1999/xlink" width="1920" height="7416" viewBox="0 0 1920 7416">
  <defs>
    <linearGradient id="linear-gradient" x1="0.5" x2="0.5" y2="1" gradientUnits="objectBoundingBox">
      <stop offset="0" stop-color="#7bf2e9"/>
      <stop offset="1" stop-color="#b65eba"/>
    </linearGradient>
    <clipPath id="clip-Home_1">
      <rect width="1920" height="7416"/>
    </clipPath>
  </defs>
  <g id="Home_1" data-name="Home – 1" clip-path="url(#clip-Home_1)">
    <rect width="1920" height="7416" fill="#fff"/>
    <g id="グループ_162506" data-name="グループ 162506" transform="translate(0 -10)">
      <path id="前面オブジェクトで型抜き_1" data-name="前面オブジェクトで型抜き 1" d="M1472,2369.037h0V447.963c39.691,2.75,79.611,6.986,118.652,12.59,38.555,5.535,77.2,12.54,114.862,20.821,37.249,8.19,74.439,17.827,110.539,28.644,35.766,10.716,71.322,22.847,105.683,36.058,34.1,13.112,67.848,27.6,100.293,43.064,32.267,15.378,64.017,32.087,94.37,49.662,30.251,17.516,59.829,36.307,87.914,55.852,28.053,19.522,55.279,40.258,80.924,61.633,25.672,21.4,50.367,43.941,73.4,67.006,23.107,23.138,45.092,47.353,65.345,71.971,10.156,12.345,20.076,25.036,29.485,37.72,9.434,12.718,18.609,25.775,27.271,38.808,8.691,13.077,17.1,26.483,24.99,39.846,7.923,13.415,15.541,27.153,22.642,40.831,7.134,13.741,13.939,27.793,20.228,41.767,6.32,14.044,12.291,28.393,17.747,42.651,5.484,14.331,10.6,28.961,15.2,43.484,4.626,14.6,8.86,29.493,12.586,44.266,3.748,14.862,7.08,30,9.905,45,2.844,15.1,5.252,30.466,7.157,45.677,1.918,15.318,3.38,30.9,4.344,46.306.97,15.522,1.463,31.3,1.463,46.884s-.492,31.362-1.463,46.884c-.964,15.408-2.425,30.988-4.344,46.306-1.905,15.211-4.313,30.579-7.157,45.677-2.825,15-6.157,30.135-9.905,45-3.726,14.774-7.96,29.667-12.586,44.266-4.6,14.523-9.716,29.153-15.2,43.484-5.456,14.257-11.427,28.607-17.747,42.651-6.289,13.974-13.094,28.026-20.228,41.767-7.1,13.677-14.719,27.415-22.642,40.832-7.89,13.361-16.3,26.767-24.99,39.845-8.66,13.03-17.835,26.088-27.271,38.809-9.41,12.686-19.33,25.377-29.485,37.72-20.252,24.618-42.237,48.832-65.345,71.971-23.032,23.064-47.727,45.608-73.4,67.006-25.646,21.375-52.872,42.111-80.924,61.633-28.084,19.544-57.663,38.335-87.914,55.852-30.35,17.573-62.1,34.282-94.37,49.662-32.445,15.463-66.189,29.952-100.293,43.064-34.361,13.21-69.918,25.342-105.683,36.058-36.1,10.816-73.289,20.453-110.539,28.643-37.661,8.281-76.306,15.286-114.862,20.821-39.043,5.6-78.963,9.841-118.652,12.59Z" transform="translate(-1472 1299)" opacity="0.4" fill="url(#linear-gradient)"/>
      <path id="前面オブジェクトで型抜き_3" data-name="前面オブジェクトで型抜き 3" d="M1260,2490.882c-36.692-4.852-73.513-11.03-109.442-18.363-35.541-7.253-71.091-15.817-105.662-25.452-34.252-9.547-68.379-20.378-101.431-32.194-32.807-11.728-65.356-24.712-96.746-38.59-31.209-13.8-62.03-28.817-91.608-44.639-29.459-15.758-58.4-32.7-86.018-50.342-27.559-17.608-54.466-36.348-79.975-55.7s-50.228-39.774-73.479-60.707c-23.292-20.971-45.676-42.964-66.53-65.369-20.93-22.488-40.824-45.933-59.129-69.686-18.409-23.888-35.66-48.67-51.274-73.656a860.1,860.1,0,0,1-42.967-77.278c-6.43-13.134-12.562-26.554-18.227-39.89-5.7-13.407-11.072-27.089-15.98-40.665-4.939-13.661-9.541-27.589-13.677-41.4-4.164-13.9-7.972-28.061-11.317-42.087-3.368-14.117-6.362-28.494-8.9-42.732-2.555-14.333-4.718-28.913-6.428-43.335-1.722-14.521-3.033-29.29-3.9-43.894-.87-14.7-1.312-29.646-1.312-44.41s.441-29.705,1.312-44.41c.865-14.6,2.176-29.373,3.9-43.894,1.71-14.423,3.873-29,6.428-43.335,2.539-14.237,5.533-28.615,8.9-42.732,3.345-14.026,7.153-28.186,11.317-42.087,4.136-13.808,8.738-27.736,13.677-41.4,4.909-13.576,10.285-27.258,15.98-40.665,5.665-13.335,11.8-26.756,18.227-39.89a860.094,860.094,0,0,1,42.967-77.278c15.614-24.986,32.865-49.767,51.274-73.655,18.306-23.754,38.2-47.2,59.129-69.686,20.853-22.4,43.237-44.4,66.53-65.37,23.251-20.934,47.973-41.359,73.479-60.707s52.416-38.089,79.975-55.7c27.62-17.647,56.561-34.584,86.018-50.341,29.579-15.822,60.4-30.841,91.608-44.639,31.393-13.88,63.943-26.863,96.746-38.59,33.056-11.817,67.183-22.649,101.431-32.194,34.57-9.635,70.12-18.2,105.662-25.452,35.929-7.333,72.75-13.511,109.442-18.363V2490.882Z" transform="translate(660 -590.118)" opacity="0.4" fill="url(#linear-gradient)"/>
      <path id="前面オブジェクトで型抜き_4" data-name="前面オブジェクトで型抜き 4" d="M1051,3656.793c-36.9-4.715-73.943-10.767-110.093-17.988-35.759-7.143-71.526-15.606-106.309-25.153-34.463-9.459-68.8-20.215-102.068-31.968-33.011-11.663-65.771-24.594-97.369-38.433-31.413-13.758-62.437-28.745-92.212-44.546-29.655-15.738-58.79-32.664-86.6-50.309-27.745-17.607-54.837-36.354-80.523-55.722s-50.575-39.813-73.992-60.783c-23.458-21.006-46-43.041-67-65.493-21.077-22.534-41.115-46.036-59.555-69.854-18.543-23.951-35.92-48.8-51.65-73.863a861.13,861.13,0,0,1-43.285-77.522c-6.475-13.172-12.654-26.638-18.364-40.023-5.735-13.446-11.152-27.175-16.1-40.807-4.973-13.7-9.609-27.676-13.781-41.546-4.193-13.941-8.029-28.153-11.4-42.241-3.394-14.17-6.411-28.6-8.969-42.893-2.574-14.382-4.754-29.018-6.477-43.5-1.735-14.576-3.057-29.4-3.929-44.064C.445,2735.323,0,2720.323,0,2705.5s.445-29.823,1.322-44.585c.872-14.662,2.194-29.488,3.929-44.064,1.724-14.483,3.9-29.119,6.477-43.5,2.558-14.291,5.575-28.723,8.969-42.893,3.374-14.087,7.21-28.3,11.4-42.241,4.172-13.871,8.809-27.849,13.781-41.546,4.948-13.63,10.365-27.359,16.1-40.807,5.709-13.385,11.888-26.85,18.364-40.023a861.14,861.14,0,0,1,43.285-77.522c15.73-25.062,33.107-49.913,51.65-73.863,18.439-23.816,38.476-47.318,59.555-69.854,21-22.452,43.544-44.487,67-65.494,23.417-20.969,48.311-41.42,73.992-60.783s52.779-38.115,80.523-55.721c27.805-17.645,56.94-34.571,86.6-50.309,29.775-15.8,60.8-30.789,92.212-44.546,31.6-13.838,64.356-26.769,97.369-38.433,33.267-11.754,67.608-22.51,102.068-31.968,34.783-9.547,70.551-18.01,106.309-25.153,36.15-7.221,73.19-13.273,110.093-17.987V3656.793Z" transform="translate(883 1762.792)" opacity="0.4" fill="url(#linear-gradient)"/>
    </g>
  </g>
</svg>
