<svg xmlns="http://www.w3.org/2000/svg" xmlns:xlink="http://www.w3.org/1999/xlink" width="1044" height="1900.764" viewBox="0 0 1044 1900.764">
  <defs>
    <linearGradient id="linear-gradient" x1="0.5" x2="0.5" y2="1" gradientUnits="objectBoundingBox">
      <stop offset="0" stop-color="#7bf2e9"/>
      <stop offset="1" stop-color="#b65eba"/>
    </linearGradient>
  </defs>
  <path id="前面オブジェクトで型抜き_9" data-name="前面オブジェクトで型抜き 9" d="M1260,2490.882c-36.692-4.852-73.513-11.03-109.442-18.363-35.541-7.253-71.091-15.817-105.662-25.452-34.252-9.547-68.379-20.378-101.431-32.194-32.807-11.728-65.356-24.712-96.746-38.59-31.209-13.8-62.03-28.817-91.608-44.639-29.459-15.758-58.4-32.7-86.018-50.342-27.559-17.608-54.466-36.348-79.975-55.7s-50.228-39.774-73.479-60.707c-23.292-20.971-45.676-42.964-66.53-65.369-20.93-22.488-40.824-45.933-59.129-69.686-18.409-23.888-35.66-48.67-51.274-73.656a860.1,860.1,0,0,1-42.967-77.278c-6.43-13.134-12.562-26.554-18.227-39.89-5.7-13.407-11.072-27.089-15.98-40.665-4.939-13.661-9.541-27.589-13.677-41.4-4.164-13.9-7.972-28.061-11.317-42.087-3.368-14.117-6.362-28.494-8.9-42.732-2.555-14.333-4.718-28.913-6.428-43.335-1.722-14.521-3.033-29.29-3.9-43.894-.87-14.7-1.312-29.646-1.312-44.41s.441-29.705,1.312-44.41c.865-14.6,2.176-29.373,3.9-43.894,1.71-14.423,3.873-29,6.428-43.335,2.539-14.237,5.533-28.615,8.9-42.732,3.345-14.026,7.153-28.186,11.317-42.087,4.136-13.808,8.738-27.736,13.677-41.4,4.909-13.576,10.285-27.258,15.98-40.665,5.665-13.335,11.8-26.756,18.227-39.89a860.094,860.094,0,0,1,42.967-77.278c15.614-24.986,32.865-49.767,51.274-73.655,18.306-23.754,38.2-47.2,59.129-69.686,20.853-22.4,43.237-44.4,66.53-65.37,23.251-20.934,47.973-41.359,73.479-60.707s52.416-38.089,79.975-55.7c27.62-17.647,56.561-34.584,86.018-50.341,29.579-15.822,60.4-30.841,91.608-44.639,31.393-13.88,63.943-26.863,96.746-38.59,33.056-11.817,67.183-22.649,101.431-32.194,34.57-9.635,70.12-18.2,105.662-25.452,35.929-7.333,72.75-13.511,109.442-18.363V2490.882Z" transform="translate(1260.001 2490.882) rotate(180)" opacity="0.4" fill="url(#linear-gradient)"/>
</svg>
